# xmcd CD database file
#
# Track frame offsets:
#	150
#	29105
#	62491
#	96366
#	124531
#	151673
#	187049
#	214022
#	245467
#	280961
#	305904
#
# Disc length: 4523 seconds
#
# Revision: 0
# Processed by: cddbd v1.5.2PL0 Copyright (c) Steve Scherf et al.
# Submitted via: CDex 1.73
#
DISCID=9e11a90b
DTITLE=FOR FREE HANDS - TRANSVERSAL
DYEAR=2007
DGENRE=Jazz
TTITLE0=FOR FREE HANDS - to act like a bull in a chinashop
TTITLE1=FOR FREE HANDS - Kontraste
TTITLE2=FOR FREE HANDS - Sofia
TTITLE3=FOR FREE HANDS - Wizards Cube
TTITLE4=FOR FREE HANDS - Dido Bubi Da
TTITLE5=FOR FREE HANDS - Magic Friday
TTITLE6=FOR FREE HANDS - Heute
TTITLE7=FOR FREE HANDS - Thracian Dance
TTITLE8=FOR FREE HANDS - Missing Geisha
TTITLE9=FOR FREE HANDS - Stickstoff
TTITLE10=FOR FREE HANDS - Birds of passage
EXTD=YEAR: 2007
EXTT0=
EXTT1=
EXTT2=
EXTT3=
EXTT4=
EXTT5=
EXTT6=
EXTT7=
EXTT8=
EXTT9=
EXTT10=
PLAYORDER=
